{
  "version": 1,
  "name": "Demo Meso Theme",
  "bpm": 118,
  "ppq": 480,
  "timeSig": [4, 4],
  "stepsPerBeat": 4,
  "measures": 8,
  "tracks": [
    {
      "name": "Melodía",
      "wave": "triangle",
      "volume": 0.78,
      "muted": false,
      "notes": [
        { "pitch": 60, "start": 0, "length": 4, "velocity": 110 },
        { "pitch": 62, "start": 4, "length": 4, "velocity": 108 },
        { "pitch": 64, "start": 8, "length": 4, "velocity": 108 },
        { "pitch": 67, "start": 12, "length": 8, "velocity": 114 },
        { "pitch": 64, "start": 20, "length": 4, "velocity": 104 },
        { "pitch": 62, "start": 24, "length": 4, "velocity": 104 },
        { "pitch": 60, "start": 28, "length": 8, "velocity": 110 },
        { "pitch": 64, "start": 40, "length": 4, "velocity": 106 },
        { "pitch": 67, "start": 44, "length": 4, "velocity": 112 },
        { "pitch": 69, "start": 48, "length": 8, "velocity": 116 },
        { "pitch": 67, "start": 56, "length": 4, "velocity": 108 },
        { "pitch": 64, "start": 60, "length": 4, "velocity": 106 },
        { "pitch": 62, "start": 64, "length": 8, "velocity": 108 },
        { "pitch": 60, "start": 72, "length": 8, "velocity": 112 },
        { "pitch": 67, "start": 80, "length": 4, "velocity": 112 },
        { "pitch": 69, "start": 84, "length": 4, "velocity": 114 },
        { "pitch": 71, "start": 88, "length": 8, "velocity": 116 },
        { "pitch": 69, "start": 96, "length": 4, "velocity": 112 },
        { "pitch": 67, "start": 100, "length": 4, "velocity": 110 },
        { "pitch": 64, "start": 104, "length": 8, "velocity": 108 },
        { "pitch": 62, "start": 112, "length": 8, "velocity": 106 },
        { "pitch": 60, "start": 120, "length": 8, "velocity": 112 }
      ]
    },
    {
      "name": "Bajo",
      "wave": "sawtooth",
      "volume": 0.62,
      "muted": false,
      "notes": [
        { "pitch": 36, "start": 0, "length": 8, "velocity": 102 },
        { "pitch": 36, "start": 8, "length": 8, "velocity": 102 },
        { "pitch": 41, "start": 16, "length": 8, "velocity": 100 },
        { "pitch": 41, "start": 24, "length": 8, "velocity": 100 },
        { "pitch": 38, "start": 32, "length": 8, "velocity": 102 },
        { "pitch": 38, "start": 40, "length": 8, "velocity": 102 },
        { "pitch": 43, "start": 48, "length": 8, "velocity": 100 },
        { "pitch": 43, "start": 56, "length": 8, "velocity": 100 },
        { "pitch": 36, "start": 64, "length": 8, "velocity": 102 },
        { "pitch": 36, "start": 72, "length": 8, "velocity": 102 },
        { "pitch": 41, "start": 80, "length": 8, "velocity": 100 },
        { "pitch": 41, "start": 88, "length": 8, "velocity": 100 },
        { "pitch": 38, "start": 96, "length": 8, "velocity": 102 },
        { "pitch": 38, "start": 104, "length": 8, "velocity": 102 },
        { "pitch": 43, "start": 112, "length": 8, "velocity": 100 },
        { "pitch": 43, "start": 120, "length": 8, "velocity": 100 }
      ]
    },
    {
      "name": "Acordes",
      "wave": "sine",
      "volume": 0.46,
      "muted": false,
      "notes": [
        { "pitch": 48, "start": 0, "length": 16, "velocity": 88 },
        { "pitch": 52, "start": 0, "length": 16, "velocity": 84 },
        { "pitch": 55, "start": 0, "length": 16, "velocity": 84 },
        { "pitch": 53, "start": 16, "length": 16, "velocity": 86 },
        { "pitch": 57, "start": 16, "length": 16, "velocity": 84 },
        { "pitch": 60, "start": 16, "length": 16, "velocity": 84 },
        { "pitch": 50, "start": 32, "length": 16, "velocity": 88 },
        { "pitch": 53, "start": 32, "length": 16, "velocity": 84 },
        { "pitch": 57, "start": 32, "length": 16, "velocity": 84 },
        { "pitch": 55, "start": 48, "length": 16, "velocity": 88 },
        { "pitch": 59, "start": 48, "length": 16, "velocity": 84 },
        { "pitch": 62, "start": 48, "length": 16, "velocity": 84 },
        { "pitch": 48, "start": 64, "length": 16, "velocity": 88 },
        { "pitch": 52, "start": 64, "length": 16, "velocity": 84 },
        { "pitch": 55, "start": 64, "length": 16, "velocity": 84 },
        { "pitch": 53, "start": 80, "length": 16, "velocity": 86 },
        { "pitch": 57, "start": 80, "length": 16, "velocity": 84 },
        { "pitch": 60, "start": 80, "length": 16, "velocity": 84 },
        { "pitch": 50, "start": 96, "length": 16, "velocity": 88 },
        { "pitch": 53, "start": 96, "length": 16, "velocity": 84 },
        { "pitch": 57, "start": 96, "length": 16, "velocity": 84 },
        { "pitch": 48, "start": 112, "length": 16, "velocity": 90 },
        { "pitch": 52, "start": 112, "length": 16, "velocity": 86 },
        { "pitch": 55, "start": 112, "length": 16, "velocity": 86 }
      ]
    }
  ]
}
